<?xml version="1.0" encoding="UTF-8"?>
<!DOCTYPE svg PUBLIC "-//W3C//DTD SVG 1.1//EN" "http://www.w3.org/Graphics/SVG/1.1/DTD/svg11.dtd">
<!-- Creator: CorelDRAW X7 -->
<svg xmlns="http://www.w3.org/2000/svg" xml:space="preserve" width="634px" height="127px" version="1.1" style="shape-rendering:geometricPrecision; text-rendering:geometricPrecision; image-rendering:optimizeQuality; fill-rule:evenodd; clip-rule:evenodd"
viewBox="0 0 6501151 1300296"
 xmlns:xlink="http://www.w3.org/1999/xlink">
 <defs>
  <style type="text/css">
   <![CDATA[
    .fil0 {fill:#FF3C00}
    .fil1 {fill:#FF6600}
    .fil2 {fill:white}
   ]]>
  </style>
 </defs>
 <g id="Layer_x0020_1">
  <metadata id="CorelCorpID_0Corel-Layer"/>
  <g id="_798925408">
   <polygon class="fil0" points="882158,567968 693175,695777 693175,1035198 371721,1039980 0,1294521 0,1300296 1003914,1300296 1003914,658114 "/>
   <path class="fil1" d="M693175 695777l188983 -127809 121756 -91513 0 -292677 -239976 -183778 -763938 0 0 582944 334638 -187119 0 -104214 358537 0 -263331 157083 -429844 256393 0 441201c243609,-161708 693175,-450511 693175,-450511z"/>
   <path class="fil2" d="M1544025 473137c23850,0 44226,2688 61114,8051 16901,5363 30812,12918 41744,22652 10932,9745 18983,21368 24140,34879 5170,13523 7761,28426 7761,44721 0,23451 -4879,42337 -14613,56647 -9734,14310 -24153,25242 -43233,32785 19080,7954 33790,19382 44129,34286 10339,14903 15496,34092 15496,57542 0,16296 -2578,31199 -7748,44710 -5169,13523 -13220,25145 -24140,34879 -10933,9746 -24855,17397 -41744,22966 -16889,5557 -37264,8342 -61114,8342l-178875 0c-22252,0 -33390,-10933 -33390,-32797l0 -336866c0,-21864 11138,-32797 33390,-32797l177083 0zm-141308 326140c0,4370 2591,6561 7761,6561l137131 0c21465,0 37167,-4576 47094,-13716 9940,-9141 14916,-22059 14916,-38754 0,-34576 -20678,-51876 -62010,-51876l-144892 0 0 97785zm0 -156212l143100 0c41344,0 62010,-16101 62010,-48293 0,-15908 -4867,-28620 -14613,-38160 -9733,-9540 -25339,-14310 -46804,-14310l-135932 0c-5170,0 -7761,2385 -7761,7155l0 93608zm429893 -169928l0 402460 -70364 0 0 -402460 70364 0zm429880 0l0 70352 -165751 0c-38947,0 -67276,10242 -84964,30714 -17687,20472 -26525,53959 -26525,100461 0,46114 8741,79395 26235,99867 17482,20472 45908,30714 85254,30714l66780 0c19879,0 34189,-5266 42930,-15799 8741,-10545 13112,-24153 13112,-40847 0,-16296 -4068,-28923 -12216,-37858 -8148,-8947 -20569,-13414 -37264,-13414l-89444 0 0 -61417 96599 0c36174,0 63003,10230 80484,30703 17495,20472 26235,48196 26235,83172 0,17494 -2276,33886 -6852,49201 -4576,15303 -11925,28608 -22058,39940 -10133,11331 -23063,20278 -38753,26828 -15702,6562 -34891,9843 -57543,9843l-62010 0c-58826,0 -103838,-16599 -135049,-49783 -31198,-33196 -46804,-83571 -46804,-151150 0,-67967 15606,-118548 46804,-151744 31211,-33184 76223,-49783 135049,-49783l165751 0zm172326 0l0 163960 205703 0 0 -163960 70944 0 0 402460 -70944 0 0 -168137 -205703 0 0 168137 -70364 0 0 -402460 70364 0zm595644 0c58825,0 103850,16695 135048,50085 31199,33390 46805,84068 46805,152035 0,67579 -15606,117857 -46805,150848 -31198,32990 -76223,49492 -135048,49492l-54855 0c-58826,0 -103839,-16502 -135049,-49492 -31199,-32991 -46804,-83269 -46804,-150848 0,-67967 15605,-118645 46804,-152035 31210,-33390 76223,-50085 135049,-50085l54855 0zm-54855 70352c-38947,0 -67277,10339 -84964,31005 -17688,20678 -26526,54261 -26526,100763 0,46114 8741,79298 26235,99576 17482,20267 45908,30412 85255,30412l54855 0c38559,0 66683,-10242 84370,-30714 17688,-20472 26526,-53753 26526,-99867 0,-46114 -8741,-79492 -26235,-100170 -17482,-20666 -45702,-31005 -84661,-31005l-54855 0zm536612 -70352c22663,0 42131,3281 58426,9843 16308,6550 29722,15303 40255,26223 10532,10932 18281,23753 23244,38463 4976,14709 7458,30012 7458,45908 0,12724 -1586,25339 -4770,37869 -3184,12518 -8148,24237 -14903,35170 -6756,10932 -15509,20569 -26235,28922 -10739,8342 -23850,14710 -39359,19080l93620 160982 -78111 0 -91817 -155618 -104939 0c-6756,0 -10134,3377 -10134,10133l0 145485 -70363 0 0 -159190c0,-22663 4976,-38959 14903,-48898 9940,-9940 26041,-14904 48305,-14904l156805 0c9939,0 18487,-1586 25642,-4770 7155,-3184 12917,-7360 17288,-12518 4370,-5169 7651,-11138 9842,-17893 2180,-6756 3269,-13717 3269,-20872 0,-14310 -4467,-26731 -13414,-37264 -8935,-10533 -23148,-15799 -42627,-15799l-220606 0 0 -70352 218221 0zm278451 402460l-70363 0 0 -321963c0,-26235 7554,-47409 22663,-63499 15097,-16102 38354,-24153 69758,-24153 27821,0 48984,6659 63499,19976 14504,13318 25933,31502 34286,54553l117458 256974c2385,4770 5557,8753 9540,11925 3971,3184 9335,4770 16090,4770 7555,0 13414,-2082 17591,-6259 4177,-4177 6259,-9637 6259,-16393l0 -318391 70957 0 0 321370c0,26634 -7652,48002 -22954,64092 -15303,16102 -38463,24153 -69468,24153 -13910,0 -26126,-1695 -36659,-5073 -10545,-3378 -19685,-8342 -27433,-14903 -7748,-6562 -14407,-14407 -19976,-23548 -5557,-9140 -10327,-19479 -14310,-31005l-117458 -256974c-5170,-11537 -13511,-17300 -25037,-17300 -7954,0 -14019,2094 -18184,6259 -4176,4177 -6259,9843 -6259,16998l0 318391zm946214 -402460l0 70352 -165751 0c-38947,0 -67276,10242 -84964,30714 -17687,20472 -26525,53959 -26525,100461 0,46114 8741,79395 26235,99867 17482,20472 45908,30714 85254,30714l66780 0c19879,0 34189,-5266 42930,-15799 8741,-10545 13112,-24153 13112,-40847 0,-16296 -4068,-28923 -12216,-37858 -8148,-8947 -20569,-13414 -37264,-13414l-89443 0 0 -61417 96598 0c36174,0 63003,10230 80485,30703 17494,20472 26234,48196 26234,83172 0,17494 -2276,33886 -6852,49201 -4576,15303 -11925,28608 -22058,39940 -10133,11331 -23063,20278 -38753,26828 -15702,6562 -34891,9843 -57543,9843l-62010 0c-58826,0 -103838,-16599 -135049,-49783 -31198,-33196 -46804,-83571 -46804,-151150 0,-67967 15606,-118548 46804,-151744 31211,-33184 76223,-49783 135049,-49783l165751 0zm170534 0l0 268900c0,20278 5266,35872 15799,46804 10533,10932 27530,16404 50981,16404l71550 0c22651,0 39346,-5472 50085,-16404 10726,-10932 16089,-26526 16089,-46804l0 -268900 69165 0 0 274263c0,42542 -10932,74540 -32784,96005 -21865,21465 -54456,32192 -97785,32192l-84674 0c-86647,0 -129976,-42737 -129976,-128197l0 -274263 71550 0zm383972 402460l-77506 0 141308 -357738c7554,-19080 18184,-32494 31901,-40254 13704,-7748 31295,-11623 52760,-11623 21066,0 38463,3875 52168,11623 13716,7760 24152,21174 31307,40254l135945 357738 -78112 0 -122228 -323755c-3571,-9140 -10133,-13716 -19673,-13716 -9540,0 -16295,4576 -20278,13716l-127592 323755zm644531 -402460c22663,0 42130,3281 58426,9843 16307,6550 29722,15303 40254,26223 10533,10932 18281,23753 23245,38463 4976,14709 7458,30012 7458,45908 0,12724 -1586,25339 -4770,37869 -3184,12518 -8148,24237 -14904,35170 -6755,10932 -15508,20569 -26235,28922 -10738,8342 -23850,14710 -39358,19080l93620 160982 -78112 0 -91816 -155618 -104940 0c-6755,0 -10133,3377 -10133,10133l0 145485 -70363 0 0 -159190c0,-22663 4975,-38959 14903,-48898 9939,-9940 26041,-14904 48305,-14904l156805 0c9939,0 18486,-1586 25641,-4770 7155,-3184 12918,-7360 17288,-12518 4371,-5169 7652,-11138 9843,-17893 2179,-6756 3269,-13717 3269,-20872 0,-14310 -4467,-26731 -13414,-37264 -8935,-10533 -23148,-15799 -42627,-15799l-220607 0 0 -70352 218222 0zm383984 0c59225,0 104238,16490 135049,49492 30799,32991 46199,83669 46199,152035 0,67966 -15400,118450 -46199,151441 -30811,32990 -75824,49492 -135049,49492l-141913 0c-22252,0 -33390,-10933 -33390,-32797l0 -336866c0,-21864 11138,-32797 33390,-32797l141913 0zm-104940 324953c0,4770 2579,7155 7748,7155l97192 0c38947,0 67167,-10339 84661,-31005 17494,-20678 26235,-54068 26235,-100170 0,-46114 -8644,-79395 -25932,-99867 -17300,-20472 -45618,-30714 -84964,-30714l-97192 0c-5169,0 -7748,2385 -7748,7155l0 247446z"/>
  </g>
 </g>
</svg>
